<svg width="94" height="20" viewBox="0 0 94 20" fill="none" xmlns="http://www.w3.org/2000/svg">
<path d="M90.9659 19.6475V7.89399H93.0815V19.6475H90.9659ZM92.0237 5.77836C91.6319 5.77836 91.2989 5.64123 91.0247 5.36699C90.7504 5.09274 90.6133 4.75972 90.6133 4.36794C90.6133 3.9631 90.7504 3.63008 91.0247 3.36889C91.2989 3.09464 91.6319 2.95752 92.0237 2.95752C92.4285 2.95752 92.7616 3.09464 93.0227 3.36889C93.297 3.63008 93.4341 3.9631 93.4341 4.36794C93.4341 4.75972 93.297 5.09274 93.0227 5.36699C92.7616 5.64123 92.4285 5.77836 92.0237 5.77836Z" fill="white"/>
<path d="M81.1247 19.8042C80.0539 19.8042 79.0744 19.5365 78.1864 19.0011C77.2983 18.4526 76.5866 17.7212 76.0511 16.8071C75.5288 15.8929 75.2676 14.8808 75.2676 13.7708C75.2676 12.6607 75.5288 11.6486 76.0511 10.7344C76.5866 9.82028 77.2983 9.09548 78.1864 8.56005C79.0744 8.01155 80.0539 7.7373 81.1247 7.7373C81.9344 7.7373 82.6919 7.88749 83.3971 8.18785C84.1153 8.48822 84.7357 8.90612 85.258 9.44156V7.89402H87.217V19.6475H85.258V18.1C84.7357 18.6223 84.1153 19.0402 83.3971 19.3537C82.6919 19.654 81.9344 19.8042 81.1247 19.8042ZM81.399 17.8845C82.1434 17.8845 82.8159 17.7017 83.4167 17.336C84.0305 16.9573 84.5137 16.461 84.8663 15.8472C85.2319 15.2204 85.4148 14.5282 85.4148 13.7708C85.4148 13.0133 85.2319 12.3277 84.8663 11.7139C84.5137 11.087 84.0305 10.5908 83.4167 10.2251C82.8159 9.8464 82.1434 9.65704 81.399 9.65704C80.6546 9.65704 79.9755 9.8464 79.3617 10.2251C78.761 10.5908 78.2778 11.087 77.9121 11.7139C77.5595 12.3277 77.3832 13.0133 77.3832 13.7708C77.3832 14.5282 77.5595 15.2204 77.9121 15.8472C78.2778 16.461 78.761 16.9573 79.3617 17.336C79.9755 17.7017 80.6546 17.8845 81.399 17.8845Z" fill="white"/>
<path d="M71.5651 19.8826C71.1341 19.8826 70.7684 19.7389 70.4681 19.4516C70.1808 19.1512 70.0371 18.7856 70.0371 18.3546C70.0371 17.9237 70.1808 17.5645 70.4681 17.2772C70.7684 16.9768 71.1341 16.8267 71.5651 16.8267C72.0091 16.8267 72.3748 16.9768 72.6621 17.2772C72.9494 17.5645 73.093 17.9237 73.093 18.3546C73.093 18.7856 72.9494 19.1512 72.6621 19.4516C72.3748 19.7389 72.0091 19.8826 71.5651 19.8826Z" fill="white"/>
<path d="M67.4849 19.6474L62.6268 13.183L66.623 7.89389H69.9727L66.0549 12.9283L71.1481 19.6474H67.4849ZM59.708 19.6474V0.841797H62.7835V19.6474H59.708Z" fill="white"/>
<path d="M55.3326 20.0002C54.5883 20.0002 53.8243 19.8761 53.0407 19.628C52.2572 19.3668 51.6303 19.0012 51.1602 18.531L51.9437 15.5535C52.3224 16.102 52.8318 16.5721 53.4717 16.9639C54.1246 17.3426 54.7972 17.532 55.4894 17.532C56.0117 17.532 56.3905 17.4275 56.6255 17.2185C56.8737 16.9965 56.9977 16.7288 56.9977 16.4154C56.9977 16.0628 56.8737 15.8081 56.6255 15.6514C56.3774 15.4816 56.1293 15.351 55.8811 15.2596L54.2552 14.6524C53.9157 14.5087 53.5174 14.3194 53.0603 14.0843C52.6032 13.8362 52.2049 13.4901 51.8654 13.0461C51.5389 12.589 51.3756 11.9948 51.3756 11.2634C51.3756 10.5974 51.5389 9.98362 51.8654 9.42206C52.1919 8.86051 52.662 8.40996 53.2758 8.07041C53.9026 7.71781 54.6536 7.5415 55.5285 7.5415C56.3121 7.5415 57.0565 7.67863 57.7617 7.95288C58.48 8.21406 59.0219 8.54055 59.3876 8.93233L58.6628 11.8315C58.2449 11.2569 57.7421 10.8129 57.1544 10.4995C56.5668 10.173 55.9987 10.0097 55.4502 10.0097C54.9931 10.0097 54.6536 10.1142 54.4315 10.3232C54.2095 10.5191 54.0985 10.7541 54.0985 11.0284C54.0985 11.2373 54.1769 11.4332 54.3336 11.616C54.4903 11.7989 54.745 11.9556 55.0976 12.0862L56.6255 12.6739C57.0304 12.8175 57.4744 13.0199 57.9576 13.2811C58.4408 13.5293 58.8522 13.8819 59.1917 14.3389C59.5443 14.796 59.7206 15.4229 59.7206 16.2195C59.7206 17.3426 59.3092 18.2568 58.4865 18.962C57.6768 19.6541 56.6255 20.0002 55.3326 20.0002Z" fill="white"/>
<path d="M44.5564 19.9216C43.4855 19.9216 42.506 19.6474 41.618 19.0989C40.73 18.5373 40.0182 17.7929 39.4828 16.8657C38.9604 15.9254 38.6992 14.8937 38.6992 13.7706C38.6992 12.6475 38.9604 11.6223 39.4828 10.6951C40.0182 9.75485 40.73 9.01046 41.618 8.46196C42.506 7.90041 43.4855 7.61963 44.5564 7.61963C45.3269 7.61963 46.0386 7.75675 46.6916 8.031C47.3446 8.30525 47.8996 8.6905 48.3567 9.18676V7.89388H51.0404V19.6474H48.3567V18.3545C47.8996 18.8377 47.3446 19.2229 46.6916 19.5102C46.0386 19.7845 45.3269 19.9216 44.5564 19.9216ZM44.9286 17.1987C45.5554 17.1987 46.117 17.042 46.6132 16.7286C47.1226 16.4152 47.5274 16.0038 47.8278 15.4945C48.1281 14.9721 48.2783 14.3975 48.2783 13.7706C48.2783 13.1438 48.1281 12.5757 47.8278 12.0664C47.5274 11.544 47.1226 11.1261 46.6132 10.8127C46.117 10.4992 45.562 10.3425 44.9482 10.3425C44.3213 10.3425 43.7532 10.4992 43.2439 10.8127C42.7476 11.1261 42.3493 11.544 42.049 12.0664C41.7486 12.5757 41.5984 13.1438 41.5984 13.7706C41.5984 14.3975 41.7486 14.9721 42.049 15.4945C42.3493 16.0038 42.7476 16.4152 43.2439 16.7286C43.7532 17.042 44.3148 17.1987 44.9286 17.1987Z" fill="white"/>
<path d="M29.5557 4.8967V2.01709H41.6422V4.8967H37.2346V19.6473H33.9632V4.8967H29.5557Z" fill="white"/>
<path d="M20.7331 19.8041C19.6623 19.8041 18.6828 19.5364 17.7948 19.0009C16.9067 18.4524 16.195 17.7211 15.6595 16.807C15.1372 15.8928 14.876 14.8807 14.876 13.7706C14.876 12.6606 15.1372 11.6485 15.6595 10.7343C16.195 9.82016 16.9067 9.09536 17.7948 8.55992C18.6828 8.01143 19.6623 7.73718 20.7331 7.73718C21.5036 7.73718 22.2284 7.8743 22.9075 8.14855C23.5866 8.4228 24.1874 8.80152 24.7097 9.28472V0.841797H26.8254V19.6474H24.8664V18.0998C24.3441 18.6222 23.7237 19.0401 23.0055 19.3535C22.3003 19.6539 21.5428 19.8041 20.7331 19.8041ZM21.0074 17.8844C21.7518 17.8844 22.4243 17.7015 23.0251 17.3359C23.6389 16.9571 24.1221 16.4609 24.4747 15.8471C24.8403 15.2202 25.0232 14.5281 25.0232 13.7706C25.0232 13.0132 24.8403 12.3276 24.4747 11.7138C24.1221 11.0869 23.6389 10.5907 23.0251 10.225C22.4243 9.84628 21.7518 9.65692 21.0074 9.65692C20.263 9.65692 19.5839 9.84628 18.9701 10.225C18.3694 10.5907 17.8862 11.0869 17.5205 11.7138C17.1679 12.3276 16.9916 13.0132 16.9916 13.7706C16.9916 14.5281 17.1679 15.2202 17.5205 15.8471C17.8862 16.4609 18.3694 16.9571 18.9701 17.3359C19.5839 17.7015 20.263 17.8844 21.0074 17.8844Z" fill="white"/>
<path d="M5.85716 19.8042C4.78628 19.8042 3.80683 19.5365 2.91878 19.0011C2.03074 18.4526 1.319 17.7212 0.783566 16.8071C0.261189 15.8929 0 14.8808 0 13.7708C0 12.6607 0.261189 11.6486 0.783566 10.7344C1.319 9.82028 2.03074 9.09548 2.91878 8.56005C3.80683 8.01155 4.78628 7.7373 5.85716 7.7373C6.66684 7.7373 7.42429 7.88749 8.1295 8.18785C8.84777 8.48822 9.46809 8.90612 9.99047 9.44156V7.89402H11.9494V19.6475H9.99047V18.1C9.46809 18.6223 8.84777 19.0402 8.1295 19.3537C7.42429 19.654 6.66684 19.8042 5.85716 19.8042ZM6.13141 17.8845C6.87579 17.8845 7.54835 17.7017 8.14909 17.336C8.76288 16.9573 9.24608 16.461 9.59869 15.8472C9.96435 15.2204 10.1472 14.5282 10.1472 13.7708C10.1472 13.0133 9.96435 12.3277 9.59869 11.7139C9.24608 11.087 8.76288 10.5908 8.14909 10.2251C7.54835 9.8464 6.87579 9.65704 6.13141 9.65704C5.38702 9.65704 4.70793 9.8464 4.09413 10.2251C3.4934 10.5908 3.0102 11.087 2.64454 11.7139C2.29193 12.3277 2.11563 13.0133 2.11563 13.7708C2.11563 14.5282 2.29193 15.2204 2.64454 15.8472C3.0102 16.461 3.4934 16.9573 4.09413 17.336C4.70793 17.7017 5.38702 17.8845 6.13141 17.8845Z" fill="white"/>
</svg>
