<svg width="470" height="94" viewBox="0 0 470 94" fill="none" xmlns="http://www.w3.org/2000/svg">
<path d="M456.977 91.9182V34.4695H467.318V91.9182H456.977ZM462.148 24.1287C460.233 24.1287 458.605 23.4585 457.265 22.118C455.924 20.7776 455.254 19.1499 455.254 17.2349C455.254 15.2561 455.924 13.6284 457.265 12.3518C458.605 11.0113 460.233 10.3411 462.148 10.3411C464.127 10.3411 465.754 11.0113 467.031 12.3518C468.371 13.6284 469.042 15.2561 469.042 17.2349C469.042 19.1499 468.371 20.7776 467.031 22.118C465.754 23.4585 464.127 24.1287 462.148 24.1287Z" fill="url(#paint0_linear_444_20580)"/>
<path d="M408.875 92.684C403.64 92.684 398.853 91.3754 394.512 88.7583C390.172 86.0774 386.693 82.5028 384.076 78.0346C381.523 73.5664 380.246 68.6194 380.246 63.1937C380.246 57.768 381.523 52.821 384.076 48.3528C386.693 43.8845 390.172 40.3419 394.512 37.7248C398.853 35.0438 403.64 33.7034 408.875 33.7034C412.832 33.7034 416.534 34.4374 419.981 35.9056C423.492 37.3737 426.524 39.4163 429.077 42.0334V34.4694H438.652V91.918H429.077V84.3539C426.524 86.9072 423.492 88.9498 419.981 90.4818C416.534 91.9499 412.832 92.684 408.875 92.684ZM410.215 83.3007C413.854 83.3007 417.141 82.4071 420.077 80.6198C423.077 78.7687 425.439 76.343 427.162 73.3429C428.95 70.279 429.843 66.8959 429.843 63.1937C429.843 59.4914 428.95 56.1403 427.162 53.1402C425.439 50.0762 423.077 47.6506 420.077 45.8633C417.141 44.0122 413.854 43.0866 410.215 43.0866C406.577 43.0866 403.257 44.0122 400.257 45.8633C397.321 47.6506 394.959 50.0762 393.172 53.1402C391.449 56.1403 390.587 59.4914 390.587 63.1937C390.587 66.8959 391.449 70.279 393.172 73.3429C394.959 76.343 397.321 78.7687 400.257 80.6198C403.257 82.4071 406.577 83.3007 410.215 83.3007Z" fill="url(#paint1_linear_444_20580)"/>
<path d="M370.3 92.9367C368.194 92.9367 366.407 92.2345 364.938 90.8302C363.534 89.3621 362.832 87.5748 362.832 85.4683C362.832 83.3619 363.534 81.6065 364.938 80.2022C366.407 78.7341 368.194 78 370.3 78C372.471 78 374.258 78.7341 375.662 80.2022C377.067 81.6065 377.769 83.3619 377.769 85.4683C377.769 87.5748 377.067 89.3621 375.662 90.8302C374.258 92.2345 372.471 92.9367 370.3 92.9367Z" fill="url(#paint2_linear_444_20580)"/>
<path d="M339.306 91.9179L316.422 60.3211L335.285 34.4692H353.189L334.614 58.8849L358.934 91.9179H339.306ZM301.103 91.9179V0H317.763V91.9179H301.103Z" fill="url(#paint3_linear_444_20580)"/>
<path d="M278.857 93.8333C274.963 93.8333 271.005 93.1949 266.984 91.9183C263.026 90.6417 259.93 88.9182 257.696 86.7479L261.813 71.0453C263.665 73.5986 266.218 75.8327 269.473 77.7476C272.793 79.6626 276.208 80.6201 279.718 80.6201C282.08 80.6201 283.772 80.1732 284.793 79.2796C285.878 78.3859 286.421 77.3008 286.421 76.0242C286.421 74.556 285.878 73.5028 284.793 72.8645C283.708 72.1624 282.591 71.5879 281.442 71.141L273.399 68.0771C271.612 67.375 269.569 66.4175 267.271 65.2047C264.973 63.9919 262.962 62.2684 261.239 60.0343C259.579 57.8002 258.75 54.8639 258.75 51.2255C258.75 47.9062 259.579 44.8423 261.239 42.0337C262.899 39.2251 265.292 36.9591 268.42 35.2356C271.612 33.4483 275.442 32.5547 279.91 32.5547C284.059 32.5547 287.921 33.2568 291.495 34.6611C295.134 36.0654 297.783 37.6293 299.442 39.3528L295.612 54.4809C293.442 51.6723 290.857 49.534 287.857 48.0658C284.921 46.5339 282.112 45.7679 279.431 45.7679C277.388 45.7679 275.888 46.1828 274.931 47.0126C273.973 47.8424 273.495 48.7999 273.495 49.885C273.495 50.7148 273.814 51.5447 274.452 52.3745C275.154 53.1405 276.303 53.8426 277.899 54.4809L285.367 57.2576C287.538 58.0236 289.836 59.0449 292.261 60.3215C294.751 61.5982 296.857 63.3855 298.581 65.6834C300.304 67.9175 301.166 71.0134 301.166 74.9709C301.166 80.5243 299.091 85.0564 294.942 88.5671C290.857 92.0779 285.495 93.8333 278.857 93.8333Z" fill="url(#paint4_linear_444_20580)"/>
<path d="M224.675 93.4501C219.376 93.4501 214.557 92.0777 210.217 89.3329C205.876 86.5882 202.397 82.9498 199.78 78.4177C197.227 73.8218 195.95 68.7472 195.95 63.1938C195.95 57.6404 197.227 52.5658 199.78 47.9699C202.397 43.374 205.876 39.7356 210.217 37.0547C214.557 34.3099 219.376 32.9375 224.675 32.9375C228.377 32.9375 231.76 33.6077 234.824 34.9482C237.888 36.2248 240.505 38.0121 242.675 40.3101V34.4695H257.037V91.9181H242.675V86.0775C240.505 88.3755 237.888 90.1947 234.824 91.5351C231.76 92.8118 228.377 93.4501 224.675 93.4501ZM226.685 78.8007C229.494 78.8007 232.047 78.0985 234.345 76.6942C236.643 75.2899 238.462 73.4069 239.803 71.0451C241.207 68.6833 241.909 66.0662 241.909 63.1938C241.909 60.3214 241.207 57.7043 239.803 55.3425C238.462 52.9807 236.643 51.0977 234.345 49.6934C232.047 48.2891 229.494 47.5869 226.685 47.5869C223.877 47.5869 221.323 48.2891 219.025 49.6934C216.727 51.0977 214.876 52.9807 213.472 55.3425C212.132 57.7043 211.461 60.3214 211.461 63.1938C211.461 66.0662 212.132 68.6833 213.472 71.0451C214.876 73.4069 216.727 75.2899 219.025 76.6942C221.323 78.0985 223.877 78.8007 226.685 78.8007Z" fill="url(#paint5_linear_444_20580)"/>
<path d="M149.626 21.256V5.74487H209.564V21.256H188.5V91.9179H170.69V21.256H149.626Z" fill="url(#paint6_linear_444_20580)"/>
<path d="M106.697 92.6838C101.463 92.6838 96.6753 91.3753 92.3348 88.7582C87.9942 86.0773 84.5154 82.5027 81.8983 78.0344C79.345 73.5662 78.0684 68.6192 78.0684 63.1935C78.0684 57.7678 79.345 52.8209 81.8983 48.3526C84.5154 43.8844 87.9942 40.3417 92.3348 37.7246C96.6753 35.0437 101.463 33.7032 106.697 33.7032C110.463 33.7032 114.006 34.3735 117.325 35.7139C120.644 37.0544 123.58 38.9055 126.134 41.2673V0H136.475V91.9179H126.9V84.3538C124.346 86.9071 121.314 88.9497 117.804 90.4816C114.357 91.9498 110.655 92.6838 106.697 92.6838ZM108.037 83.3006C111.676 83.3006 114.963 82.4069 117.899 80.6196C120.9 78.7685 123.261 76.3429 124.985 73.3428C126.772 70.2789 127.666 66.8958 127.666 63.1935C127.666 59.4913 126.772 56.1401 124.985 53.14C123.261 50.0761 120.9 47.6505 117.899 45.8632C114.963 44.0121 111.676 43.0865 108.037 43.0865C104.399 43.0865 101.08 44.0121 98.0796 45.8632C95.1434 47.6505 92.7816 50.0761 90.9943 53.14C89.2709 56.1401 88.4091 59.4913 88.4091 63.1935C88.4091 66.8958 89.2709 70.2789 90.9943 73.3428C92.7816 76.3429 95.1434 78.7685 98.0796 80.6196C101.08 82.4069 104.399 83.3006 108.037 83.3006Z" fill="url(#paint7_linear_444_20580)"/>
<path d="M0.832031 91.9177L37.3119 2.87231H37.5034L73.9833 91.9177H62.3979L52.2486 66.3531H22.088L11.843 91.9177H0.832031ZM25.7264 57.2571H48.6102L41.8121 40.214C40.9823 38.0437 40.1844 35.9053 39.4184 33.7988C38.6524 31.6924 37.8864 29.171 37.1204 26.2348C36.3545 29.171 35.6204 31.6924 34.9182 33.7988C34.2161 35.8415 33.4182 37.9798 32.5245 40.214L25.7264 57.2571Z" fill="url(#paint8_linear_444_20580)"/>
<defs>
<linearGradient id="paint0_linear_444_20580" x1="462.148" y1="10.3411" x2="462.148" y2="91.9182" gradientUnits="userSpaceOnUse">
<stop stop-color="#E2E8F8"/>
<stop offset="1" stop-color="#858992"/>
</linearGradient>
<linearGradient id="paint1_linear_444_20580" x1="409.449" y1="33.7034" x2="409.449" y2="92.684" gradientUnits="userSpaceOnUse">
<stop stop-color="#E2E8F8"/>
<stop offset="1" stop-color="#858992"/>
</linearGradient>
<linearGradient id="paint2_linear_444_20580" x1="370.3" y1="78" x2="370.3" y2="92.9367" gradientUnits="userSpaceOnUse">
<stop stop-color="#E2E8F8"/>
<stop offset="1" stop-color="#858992"/>
</linearGradient>
<linearGradient id="paint3_linear_444_20580" x1="330.018" y1="0" x2="330.018" y2="91.9179" gradientUnits="userSpaceOnUse">
<stop stop-color="#E2E8F8"/>
<stop offset="1" stop-color="#858992"/>
</linearGradient>
<linearGradient id="paint4_linear_444_20580" x1="279.431" y1="32.5547" x2="279.431" y2="93.8333" gradientUnits="userSpaceOnUse">
<stop stop-color="#E2E8F8"/>
<stop offset="1" stop-color="#858992"/>
</linearGradient>
<linearGradient id="paint5_linear_444_20580" x1="226.494" y1="32.9375" x2="226.494" y2="93.4501" gradientUnits="userSpaceOnUse">
<stop stop-color="#E2E8F8"/>
<stop offset="1" stop-color="#858992"/>
</linearGradient>
<linearGradient id="paint6_linear_444_20580" x1="179.595" y1="5.74487" x2="179.595" y2="91.9179" gradientUnits="userSpaceOnUse">
<stop stop-color="#E2E8F8"/>
<stop offset="1" stop-color="#858992"/>
</linearGradient>
<linearGradient id="paint7_linear_444_20580" x1="107.271" y1="0" x2="107.271" y2="92.6838" gradientUnits="userSpaceOnUse">
<stop stop-color="#E2E8F8"/>
<stop offset="1" stop-color="#858992"/>
</linearGradient>
<linearGradient id="paint8_linear_444_20580" x1="37.4077" y1="2.87231" x2="37.4077" y2="91.9177" gradientUnits="userSpaceOnUse">
<stop stop-color="#E2E8F8"/>
<stop offset="1" stop-color="#858992"/>
</linearGradient>
</defs>
</svg>
