<svg width="97" height="20" viewBox="0 0 97 20" fill="none" xmlns="http://www.w3.org/2000/svg">
<path d="M94.2959 19.6317V7.36183H96.4696V19.6317H94.2959ZM95.3827 5.15326C94.9802 5.15326 94.638 5.01011 94.3563 4.72381C94.0745 4.43752 93.9336 4.08987 93.9336 3.68088C93.9336 3.25825 94.0745 2.9106 94.3563 2.63794C94.638 2.35164 94.9802 2.2085 95.3827 2.2085C95.7987 2.2085 96.1409 2.35164 96.4092 2.63794C96.691 2.9106 96.8319 3.25825 96.8319 3.68088C96.8319 4.08987 96.691 4.43752 96.4092 4.72381C96.1409 5.01011 95.7987 5.15326 95.3827 5.15326Z" fill="white"/>
<path d="M94.2959 19.6317V7.36183H96.4696V19.6317H94.2959ZM95.3827 5.15326C94.9802 5.15326 94.638 5.01011 94.3563 4.72381C94.0745 4.43752 93.9336 4.08987 93.9336 3.68088C93.9336 3.25825 94.0745 2.9106 94.3563 2.63794C94.638 2.35164 94.9802 2.2085 95.3827 2.2085C95.7987 2.2085 96.1409 2.35164 96.4092 2.63794C96.691 2.9106 96.8319 3.25825 96.8319 3.68088C96.8319 4.08987 96.691 4.43752 96.4092 4.72381C96.1409 5.01011 95.7987 5.15326 95.3827 5.15326Z" fill="white"/>
<path d="M84.185 19.7953C83.0847 19.7953 82.0783 19.5158 81.1659 18.9568C80.2535 18.3843 79.5222 17.6208 78.9721 16.6665C78.4353 15.7122 78.167 14.6556 78.167 13.4968C78.167 12.3379 78.4353 11.2814 78.9721 10.3271C79.5222 9.37273 80.2535 8.61609 81.1659 8.05713C82.0783 7.48454 83.0847 7.19824 84.185 7.19824C85.0169 7.19824 85.7951 7.35502 86.5197 7.66859C87.2577 7.98215 87.895 8.41841 88.4318 8.97737V7.36184H90.4445V19.6317H88.4318V18.0162C87.895 18.5615 87.2577 18.9977 86.5197 19.3249C85.7951 19.6385 85.0169 19.7953 84.185 19.7953ZM84.4667 17.7912C85.2316 17.7912 85.9226 17.6003 86.5398 17.2186C87.1705 16.8233 87.6669 16.3052 88.0292 15.6644C88.4049 15.01 88.5928 14.2875 88.5928 13.4968C88.5928 12.706 88.4049 11.9903 88.0292 11.3495C87.6669 10.6951 87.1705 10.1771 86.5398 9.79536C85.9226 9.4 85.2316 9.20232 84.4667 9.20232C83.7019 9.20232 83.0042 9.4 82.3735 9.79536C81.7563 10.1771 81.2598 10.6951 80.8841 11.3495C80.5219 11.9903 80.3407 12.706 80.3407 13.4968C80.3407 14.2875 80.5219 15.01 80.8841 15.6644C81.2598 16.3052 81.7563 16.8233 82.3735 17.2186C83.0042 17.6003 83.7019 17.7912 84.4667 17.7912Z" fill="white"/>
<path d="M84.185 19.7953C83.0847 19.7953 82.0783 19.5158 81.1659 18.9568C80.2535 18.3843 79.5222 17.6208 78.9721 16.6665C78.4353 15.7122 78.167 14.6556 78.167 13.4968C78.167 12.3379 78.4353 11.2814 78.9721 10.3271C79.5222 9.37273 80.2535 8.61609 81.1659 8.05713C82.0783 7.48454 83.0847 7.19824 84.185 7.19824C85.0169 7.19824 85.7951 7.35502 86.5197 7.66859C87.2577 7.98215 87.895 8.41841 88.4318 8.97737V7.36184H90.4445V19.6317H88.4318V18.0162C87.895 18.5615 87.2577 18.9977 86.5197 19.3249C85.7951 19.6385 85.0169 19.7953 84.185 19.7953ZM84.4667 17.7912C85.2316 17.7912 85.9226 17.6003 86.5398 17.2186C87.1705 16.8233 87.6669 16.3052 88.0292 15.6644C88.4049 15.01 88.5928 14.2875 88.5928 13.4968C88.5928 12.706 88.4049 11.9903 88.0292 11.3495C87.6669 10.6951 87.1705 10.1771 86.5398 9.79536C85.9226 9.4 85.2316 9.20232 84.4667 9.20232C83.7019 9.20232 83.0042 9.4 82.3735 9.79536C81.7563 10.1771 81.2598 10.6951 80.8841 11.3495C80.5219 11.9903 80.3407 12.706 80.3407 13.4968C80.3407 14.2875 80.5219 15.01 80.8841 15.6644C81.2598 16.3052 81.7563 16.8233 82.3735 17.2186C83.0042 17.6003 83.7019 17.7912 84.4667 17.7912Z" fill="white"/>
<path d="M76.4127 19.8772C75.9699 19.8772 75.5942 19.7272 75.2856 19.4273C74.9904 19.1137 74.8428 18.732 74.8428 18.2821C74.8428 17.8322 74.9904 17.4573 75.2856 17.1574C75.5942 16.8438 75.9699 16.687 76.4127 16.687C76.8689 16.687 77.2446 16.8438 77.5398 17.1574C77.835 17.4573 77.9826 17.8322 77.9826 18.2821C77.9826 18.732 77.835 19.1137 77.5398 19.4273C77.2446 19.7272 76.8689 19.8772 76.4127 19.8772Z" fill="white"/>
<path d="M76.4127 19.8772C75.9699 19.8772 75.5942 19.7272 75.2856 19.4273C74.9904 19.1137 74.8428 18.732 74.8428 18.2821C74.8428 17.8322 74.9904 17.4573 75.2856 17.1574C75.5942 16.8438 75.9699 16.687 76.4127 16.687C76.8689 16.687 77.2446 16.8438 77.5398 17.1574C77.835 17.4573 77.9826 17.8322 77.9826 18.2821C77.9826 18.732 77.835 19.1137 77.5398 19.4273C77.2446 19.7272 76.8689 19.8772 76.4127 19.8772Z" fill="white"/>
<path d="M70.1691 19.6318L65.1776 12.8833L69.2835 7.36191H72.7253L68.6999 12.6175L73.9329 19.6318H70.1691ZM62.1787 19.6318V0H65.3387V19.6318H62.1787Z" fill="white"/>
<path d="M70.1691 19.6318L65.1776 12.8833L69.2835 7.36191H72.7253L68.6999 12.6175L73.9329 19.6318H70.1691ZM62.1787 19.6318V0H65.3387V19.6318H62.1787Z" fill="white"/>
<path d="M57.6835 20.0002C56.9187 20.0002 56.1338 19.8707 55.3287 19.6116C54.5236 19.339 53.8795 18.9572 53.3965 18.4664L54.2016 15.3581C54.5907 15.9307 55.114 16.4215 55.7715 16.8305C56.4424 17.2258 57.1334 17.4235 57.8446 17.4235C58.3813 17.4235 58.7704 17.3144 59.0119 17.0963C59.2669 16.8645 59.3943 16.5851 59.3943 16.2579C59.3943 15.8898 59.2669 15.6239 59.0119 15.4603C58.757 15.2831 58.502 15.1468 58.2471 15.0513L56.5766 14.4174C56.2277 14.2674 55.8184 14.0698 55.3488 13.8244C54.8792 13.5653 54.4699 13.204 54.1211 12.7405C53.7856 12.2634 53.6179 11.643 53.6179 10.8796C53.6179 10.1843 53.7856 9.54354 54.1211 8.95732C54.4565 8.37109 54.9396 7.90074 55.5702 7.54628C56.2143 7.17819 56.9858 6.99414 57.8848 6.99414C58.6899 6.99414 59.4547 7.13729 60.1793 7.42358C60.9173 7.69625 61.4741 8.03708 61.8498 8.44607L61.1051 11.4726C60.6758 10.8728 60.1592 10.4092 59.5554 10.0821C58.9515 9.74122 58.3679 9.57081 57.8043 9.57081C57.3347 9.57081 56.9858 9.67987 56.7577 9.898C56.5296 10.1025 56.4155 10.3479 56.4155 10.6342C56.4155 10.8523 56.496 11.0568 56.6571 11.2477C56.8181 11.4385 57.0797 11.6021 57.442 11.7385L59.0119 12.352C59.4279 12.5019 59.8841 12.7133 60.3806 12.9859C60.877 13.2449 61.2997 13.613 61.6486 14.0902C62.0109 14.5674 62.192 15.2218 62.192 16.0534C62.192 17.2258 61.7693 18.1801 60.924 18.9163C60.0921 19.6389 59.0119 20.0002 57.6835 20.0002Z" fill="white"/>
<path d="M57.6835 20.0002C56.9187 20.0002 56.1338 19.8707 55.3287 19.6116C54.5236 19.339 53.8795 18.9572 53.3965 18.4664L54.2016 15.3581C54.5907 15.9307 55.114 16.4215 55.7715 16.8305C56.4424 17.2258 57.1334 17.4235 57.8446 17.4235C58.3813 17.4235 58.7704 17.3144 59.0119 17.0963C59.2669 16.8645 59.3943 16.5851 59.3943 16.2579C59.3943 15.8898 59.2669 15.6239 59.0119 15.4603C58.757 15.2831 58.502 15.1468 58.2471 15.0513L56.5766 14.4174C56.2277 14.2674 55.8184 14.0698 55.3488 13.8244C54.8792 13.5653 54.4699 13.204 54.1211 12.7405C53.7856 12.2634 53.6179 11.643 53.6179 10.8796C53.6179 10.1843 53.7856 9.54354 54.1211 8.95732C54.4565 8.37109 54.9396 7.90074 55.5702 7.54628C56.2143 7.17819 56.9858 6.99414 57.8848 6.99414C58.6899 6.99414 59.4547 7.13729 60.1793 7.42358C60.9173 7.69625 61.4741 8.03708 61.8498 8.44607L61.1051 11.4726C60.6758 10.8728 60.1592 10.4092 59.5554 10.0821C58.9515 9.74122 58.3679 9.57081 57.8043 9.57081C57.3347 9.57081 56.9858 9.67987 56.7577 9.898C56.5296 10.1025 56.4155 10.3479 56.4155 10.6342C56.4155 10.8523 56.496 11.0568 56.6571 11.2477C56.8181 11.4385 57.0797 11.6021 57.442 11.7385L59.0119 12.352C59.4279 12.5019 59.8841 12.7133 60.3806 12.9859C60.877 13.2449 61.2997 13.613 61.6486 14.0902C62.0109 14.5674 62.192 15.2218 62.192 16.0534C62.192 17.2258 61.7693 18.1801 60.924 18.9163C60.0921 19.6389 59.0119 20.0002 57.6835 20.0002Z" fill="white"/>
<path d="M46.6117 19.9181C45.5115 19.9181 44.5051 19.6318 43.5927 19.0592C42.6802 18.473 41.949 17.6959 41.3988 16.728C40.8621 15.7464 40.5938 14.6694 40.5938 13.4969C40.5938 12.3244 40.8621 11.2542 41.3988 10.2863C41.949 9.3047 42.6802 8.52762 43.5927 7.95502C44.5051 7.3688 45.5115 7.07568 46.6117 7.07568C47.4034 7.07568 48.1347 7.21883 48.8056 7.50513C49.4765 7.79142 50.0467 8.1936 50.5164 8.71166V7.36198H53.2738V19.6318H50.5164V18.2821C50.0467 18.7866 49.4765 19.1887 48.8056 19.4887C48.1347 19.775 47.4034 19.9181 46.6117 19.9181ZM46.9941 17.0756C47.6382 17.0756 48.2152 16.912 48.7251 16.5848C49.2484 16.2576 49.6643 15.8282 49.9729 15.2965C50.2816 14.7512 50.4359 14.1513 50.4359 13.4969C50.4359 12.8425 50.2816 12.2495 49.9729 11.7178C49.6643 11.1724 49.2484 10.7362 48.7251 10.409C48.2152 10.0818 47.6449 9.9182 47.0143 9.9182C46.3702 9.9182 45.7865 10.0818 45.2632 10.409C44.7533 10.7362 44.3441 11.1724 44.0355 11.7178C43.7269 12.2495 43.5725 12.8425 43.5725 13.4969C43.5725 14.1513 43.7269 14.7512 44.0355 15.2965C44.3441 15.8282 44.7533 16.2576 45.2632 16.5848C45.7865 16.912 46.3635 17.0756 46.9941 17.0756Z" fill="white"/>
<path d="M46.6117 19.9181C45.5115 19.9181 44.5051 19.6318 43.5927 19.0592C42.6802 18.473 41.949 17.6959 41.3988 16.728C40.8621 15.7464 40.5938 14.6694 40.5938 13.4969C40.5938 12.3244 40.8621 11.2542 41.3988 10.2863C41.949 9.3047 42.6802 8.52762 43.5927 7.95502C44.5051 7.3688 45.5115 7.07568 46.6117 7.07568C47.4034 7.07568 48.1347 7.21883 48.8056 7.50513C49.4765 7.79142 50.0467 8.1936 50.5164 8.71166V7.36198H53.2738V19.6318H50.5164V18.2821C50.0467 18.7866 49.4765 19.1887 48.8056 19.4887C48.1347 19.775 47.4034 19.9181 46.6117 19.9181ZM46.9941 17.0756C47.6382 17.0756 48.2152 16.912 48.7251 16.5848C49.2484 16.2576 49.6643 15.8282 49.9729 15.2965C50.2816 14.7512 50.4359 14.1513 50.4359 13.4969C50.4359 12.8425 50.2816 12.2495 49.9729 11.7178C49.6643 11.1724 49.2484 10.7362 48.7251 10.409C48.2152 10.0818 47.6449 9.9182 47.0143 9.9182C46.3702 9.9182 45.7865 10.0818 45.2632 10.409C44.7533 10.7362 44.3441 11.1724 44.0355 11.7178C43.7269 12.2495 43.5725 12.8425 43.5725 13.4969C43.5725 14.1513 43.7269 14.7512 44.0355 15.2965C44.3441 15.8282 44.7533 16.2576 45.2632 16.5848C45.7865 16.912 46.3635 17.0756 46.9941 17.0756Z" fill="white"/>
<path d="M31.1992 4.23316V1.22705H43.6176V4.23316H39.089V19.6318H35.7278V4.23316H31.1992Z" fill="white"/>
<path d="M31.1992 4.23316V1.22705H43.6176V4.23316H39.089V19.6318H35.7278V4.23316H31.1992Z" fill="white"/>
<path d="M22.1342 19.7954C21.0339 19.7954 20.0276 19.5159 19.1151 18.9569C18.2027 18.3843 17.4714 17.6209 16.9213 16.6665C16.3846 15.7122 16.1162 14.6556 16.1162 13.4968C16.1162 12.338 16.3846 11.2814 16.9213 10.3271C17.4714 9.3728 18.2027 8.61616 19.1151 8.0572C20.0276 7.48461 21.0339 7.19831 22.1342 7.19831C22.9259 7.19831 23.6706 7.34146 24.3683 7.62775C25.066 7.91405 25.6833 8.30941 26.22 8.81384V0H28.3937V19.6318H26.381V18.0162C25.8443 18.5615 25.2069 18.9978 24.4689 19.325C23.7444 19.6386 22.9661 19.7954 22.1342 19.7954ZM22.416 17.7913C23.1808 17.7913 23.8718 17.6004 24.4891 17.2187C25.1197 16.8233 25.6162 16.3053 25.9784 15.6645C26.3542 15.0101 26.542 14.2876 26.542 13.4968C26.542 12.7061 26.3542 11.9904 25.9784 11.3496C25.6162 10.6952 25.1197 10.1772 24.4891 9.79543C23.8718 9.40007 23.1808 9.20238 22.416 9.20238C21.6511 9.20238 20.9534 9.40007 20.3228 9.79543C19.7055 10.1772 19.2091 10.6952 18.8334 11.3496C18.4711 11.9904 18.2899 12.7061 18.2899 13.4968C18.2899 14.2876 18.4711 15.0101 18.8334 15.6645C19.2091 16.3053 19.7055 16.8233 20.3228 17.2187C20.9534 17.6004 21.6511 17.7913 22.416 17.7913Z" fill="white"/>
<path d="M22.1342 19.7954C21.0339 19.7954 20.0276 19.5159 19.1151 18.9569C18.2027 18.3843 17.4714 17.6209 16.9213 16.6665C16.3846 15.7122 16.1162 14.6556 16.1162 13.4968C16.1162 12.338 16.3846 11.2814 16.9213 10.3271C17.4714 9.3728 18.2027 8.61616 19.1151 8.0572C20.0276 7.48461 21.0339 7.19831 22.1342 7.19831C22.9259 7.19831 23.6706 7.34146 24.3683 7.62775C25.066 7.91405 25.6833 8.30941 26.22 8.81384V0H28.3937V19.6318H26.381V18.0162C25.8443 18.5615 25.2069 18.9978 24.4689 19.325C23.7444 19.6386 22.9661 19.7954 22.1342 19.7954ZM22.416 17.7913C23.1808 17.7913 23.8718 17.6004 24.4891 17.2187C25.1197 16.8233 25.6162 16.3053 25.9784 15.6645C26.3542 15.0101 26.542 14.2876 26.542 13.4968C26.542 12.7061 26.3542 11.9904 25.9784 11.3496C25.6162 10.6952 25.1197 10.1772 24.4891 9.79543C23.8718 9.40007 23.1808 9.20238 22.416 9.20238C21.6511 9.20238 20.9534 9.40007 20.3228 9.79543C19.7055 10.1772 19.2091 10.6952 18.8334 11.3496C18.4711 11.9904 18.2899 12.7061 18.2899 13.4968C18.2899 14.2876 18.4711 15.0101 18.8334 15.6645C19.2091 16.3053 19.7055 16.8233 20.3228 17.2187C20.9534 17.6004 21.6511 17.7913 22.416 17.7913Z" fill="white"/>
<path d="M6.85001 19.7953C5.74973 19.7953 4.74338 19.5158 3.83096 18.9568C2.91853 18.3843 2.18725 17.6208 1.63711 16.6665C1.10039 15.7122 0.832031 14.6556 0.832031 13.4968C0.832031 12.3379 1.10039 11.2814 1.63711 10.3271C2.18725 9.37273 2.91853 8.61609 3.83096 8.05713C4.74338 7.48454 5.74973 7.19824 6.85001 7.19824C7.68193 7.19824 8.46017 7.35502 9.18474 7.66859C9.92273 7.98215 10.5601 8.41841 11.0968 8.97737V7.36184H13.1095V19.6317H11.0968V18.0162C10.5601 18.5615 9.92273 18.9977 9.18474 19.3249C8.46017 19.6385 7.68193 19.7953 6.85001 19.7953ZM7.13179 17.7912C7.89661 17.7912 8.58764 17.6003 9.20487 17.2186C9.83552 16.8233 10.332 16.3052 10.6943 15.6644C11.07 15.01 11.2578 14.2875 11.2578 13.4968C11.2578 12.706 11.07 11.9903 10.6943 11.3495C10.332 10.6951 9.83552 10.1771 9.20487 9.79536C8.58764 9.4 7.89661 9.20232 7.13179 9.20232C6.36696 9.20232 5.66922 9.4 5.03858 9.79536C4.42135 10.1771 3.92488 10.6951 3.54918 11.3495C3.18689 11.9903 3.00575 12.706 3.00575 13.4968C3.00575 14.2875 3.18689 15.01 3.54918 15.6644C3.92488 16.3052 4.42135 16.8233 5.03858 17.2186C5.66922 17.6003 6.36696 17.7912 7.13179 17.7912Z" fill="white"/>
<path d="M6.85001 19.7953C5.74973 19.7953 4.74338 19.5158 3.83096 18.9568C2.91853 18.3843 2.18725 17.6208 1.63711 16.6665C1.10039 15.7122 0.832031 14.6556 0.832031 13.4968C0.832031 12.3379 1.10039 11.2814 1.63711 10.3271C2.18725 9.37273 2.91853 8.61609 3.83096 8.05713C4.74338 7.48454 5.74973 7.19824 6.85001 7.19824C7.68193 7.19824 8.46017 7.35502 9.18474 7.66859C9.92273 7.98215 10.5601 8.41841 11.0968 8.97737V7.36184H13.1095V19.6317H11.0968V18.0162C10.5601 18.5615 9.92273 18.9977 9.18474 19.3249C8.46017 19.6385 7.68193 19.7953 6.85001 19.7953ZM7.13179 17.7912C7.89661 17.7912 8.58764 17.6003 9.20487 17.2186C9.83552 16.8233 10.332 16.3052 10.6943 15.6644C11.07 15.01 11.2578 14.2875 11.2578 13.4968C11.2578 12.706 11.07 11.9903 10.6943 11.3495C10.332 10.6951 9.83552 10.1771 9.20487 9.79536C8.58764 9.4 7.89661 9.20232 7.13179 9.20232C6.36696 9.20232 5.66922 9.4 5.03858 9.79536C4.42135 10.1771 3.92488 10.6951 3.54918 11.3495C3.18689 11.9903 3.00575 12.706 3.00575 13.4968C3.00575 14.2875 3.18689 15.01 3.54918 15.6644C3.92488 16.3052 4.42135 16.8233 5.03858 17.2186C5.66922 17.6003 6.36696 17.7912 7.13179 17.7912Z" fill="white"/>
</svg>
